<?xml version="1.0" standalone="no"?>
<svg xmlns:xlink="http://www.w3.org/1999/xlink" id="wave" style="transform:rotate(0deg); transition: 0.3s" viewBox="0 0 1440 200" version="1.1" xmlns="http://www.w3.org/2000/svg"><defs><linearGradient id="sw-gradient-0" x1="0" x2="0" y1="1" y2="0"><stop stop-color="rgba(242.62, 193.5, 3.63, 1)" offset="0%"/><stop stop-color="rgba(255, 179, 11, 1)" offset="100%"/></linearGradient></defs><path style="transform:translate(0, 0px); opacity:1" fill="url(#sw-gradient-0)" d="M0,180L60,156.7C120,133,240,87,360,86.7C480,87,600,133,720,156.7C840,180,960,180,1080,150C1200,120,1320,60,1440,53.3C1560,47,1680,93,1800,120C1920,147,2040,153,2160,146.7C2280,140,2400,120,2520,116.7C2640,113,2760,127,2880,126.7C3000,127,3120,113,3240,113.3C3360,113,3480,127,3600,140C3720,153,3840,167,3960,143.3C4080,120,4200,60,4320,30C4440,0,4560,0,4680,23.3C4800,47,4920,93,5040,123.3C5160,153,5280,167,5400,150C5520,133,5640,87,5760,60C5880,33,6000,27,6120,30C6240,33,6360,47,6480,43.3C6600,40,6720,20,6840,13.3C6960,7,7080,13,7200,33.3C7320,53,7440,87,7560,103.3C7680,120,7800,120,7920,110C8040,100,8160,80,8280,76.7C8400,73,8520,87,8580,93.3L8640,100L8640,200L8580,200C8520,200,8400,200,8280,200C8160,200,8040,200,7920,200C7800,200,7680,200,7560,200C7440,200,7320,200,7200,200C7080,200,6960,200,6840,200C6720,200,6600,200,6480,200C6360,200,6240,200,6120,200C6000,200,5880,200,5760,200C5640,200,5520,200,5400,200C5280,200,5160,200,5040,200C4920,200,4800,200,4680,200C4560,200,4440,200,4320,200C4200,200,4080,200,3960,200C3840,200,3720,200,3600,200C3480,200,3360,200,3240,200C3120,200,3000,200,2880,200C2760,200,2640,200,2520,200C2400,200,2280,200,2160,200C2040,200,1920,200,1800,200C1680,200,1560,200,1440,200C1320,200,1200,200,1080,200C960,200,840,200,720,200C600,200,480,200,360,200C240,200,120,200,60,200L0,200Z"/></svg>